<svg xmlns="http://www.w3.org/2000/svg" xmlns:xlink="http://www.w3.org/1999/xlink" width="500" zoomAndPan="magnify" viewBox="0 0 375 374.999991" height="500" preserveAspectRatio="xMidYMid meet" version="1.0"><defs><clipPath id="e228bf60ed"><path d="M 93.800781 51.6875 L 281.699219 51.6875 L 281.699219 323.949219 L 93.800781 323.949219 Z M 93.800781 51.6875 " clip-rule="nonzero"/></clipPath><clipPath id="8bcf21270c"><path d="M 203.8125 290 L 172.234375 218.855469 L 156.269531 231.003906 L 156.269531 286.875 C 156.269531 313.253906 161.128906 320.539062 168.761719 323.316406 L 93.800781 323.316406 C 106.640625 320.539062 114.621094 313.253906 114.621094 286.875 L 114.621094 97.042969 C 114.621094 81.078125 105.945312 71.011719 96.222656 65.464844 C 101.433594 65.464844 114.621094 65.121094 125.722656 63.035156 C 136.832031 60.953125 148.628906 56.089844 153.488281 53.3125 C 158.34375 50.535156 161.121094 51.234375 159.730469 56.089844 C 158.34375 60.949219 156.265625 68.933594 156.265625 77.609375 L 156.265625 87.328125 C 156.265625 90.105469 156.265625 93.230469 156.265625 97.050781 L 156.265625 211.230469 L 201.726562 175.484375 C 210.40625 167.507812 204.503906 156.054688 193.75 149.808594 L 265.242188 149.808594 C 261.421875 152.585938 251.011719 156.054688 230.191406 172.363281 L 183.683594 208.460938 C 188.890625 215.050781 200.691406 218.523438 214.570312 213.660156 C 214.570312 213.660156 210.75 218.519531 215.613281 228.582031 L 244.765625 290.359375 C 256.21875 314.300781 268.363281 320.554688 281.207031 323.324219 L 197.914062 323.324219 C 210.757812 320.535156 214.570312 314.289062 203.8125 290 Z M 203.8125 290 " clip-rule="nonzero"/></clipPath></defs><rect x="-37.5" width="450" fill="#ffffff" y="-37.499999" height="449.999989" fill-opacity="1"/><rect x="-37.5" width="450" fill="#0a0a0a" y="-37.499999" height="449.999989" fill-opacity="1"/><g clip-path="url(#e228bf60ed)"><g clip-path="url(#8bcf21270c)"><path fill="#d1b270" d="M 93.800781 51.6875 L 281.058594 51.6875 L 281.058594 323.3125 L 93.800781 323.3125 Z M 93.800781 51.6875 " fill-opacity="1" fill-rule="nonzero"/></g></g></svg>